# xmcd
#
# Track frame offsets:
#	150
#	18381
#	36060
#	49172
#	65253
#	81772
#	104876
#	119665
#	138107
#	154084
#	171287
#	190039
#	207770
#	227150
#	247607
#	262854
#	281529
#	299952
#	326963
#	343508
#
# Disc length: 4802 seconds
#
# Revision: 1
# Processed by: cddbd v1.5.2PL0 Copyright (c) Steve Scherf et al.
# Submitted via: audiograbber 1.83.01
#
DISCID=2712c014
DTITLE=Various Artist - Love Duets
DYEAR=1900
DGENRE=Easy Listening
TTITLE0=Eddie Rabbitt and Crystal Gayle - You And I
TTITLE1=Joe Cocker and Jennifer Warnes - Up Where We Belong
TTITLE2=Johny Mathis and Jane Olivor - The Last Time I Felt Like This
TTITLE3=Aaron Neville and Linda Ronstadt - Don't Know Much
TTITLE4=Bryan Adams and Barbra Streisand - Finally Found Someone
TTITLE5=Barry Johnson and Kysia Bostic - All My Love (For You)
TTITLE6=Peabo Bryson and Roberta Flack - Maybe
TTITLE7=Johny Mathis and Dionne Warwick - Friends In Love
TTITLE8=Frank Stallone and Cynthia Rhodes - Never Gonna Give You Up
TTITLE9=Kenny Rogers and Sheena Easton - We've Got Tonight
TTITLE10=Andy Gibb and Olivia Newton-John - I Can't Help It
TTITLE11=Dan Hill and Vonda Shepard - Can't We Try
TTITLE12=James Ingram and Patti Austin - How Do You Keep The Music Playing
TTITLE13=Ray Parker Jr. and Natalie Cole - Over You
TTITLE14=Neil Diamond and Barbra Streisand - You Don't Bring Me Flowers
TTITLE15=Phil Collins and Marilyn Martin - Separate Lives
TTITLE16=Billy Preston and Syreeta - Love
TTITLE17=Teddy Pendergrass and Whitney Houston - Hold Me
TTITLE18=Kris Kristofferson and Rita Coolidge - Loving Arms
TTITLE19=Gene Cotton and Kim Carnes - You're A Part Of Me
EXTD=
EXTT0=
EXTT1=
EXTT2=
EXTT3=
EXTT4=
EXTT5=
EXTT6=
EXTT7=
EXTT8=
EXTT9=
EXTT10=
EXTT11=
EXTT12=
EXTT13=
EXTT14=
EXTT15=
EXTT16=
EXTT17=
EXTT18=
EXTT19=
PLAYORDER=
